# xmcd CD database file
# Copyright (C) 1993-1998 Ti Kan
#
# Track frame offsets:
# 150
# 13827
# 25902
# 39302
# 53282
# 65160
# 77260
# 89362
# 99790
# 112142
#
# Disc length: 1665 seconds
# Revision: 0
# Processed by: cddbd v1.4b41PL1 Copyright (c) Steve Scherf et al.
# Submitted via: CDSpectrumPro v3.3.334
#
DISCID=6e067f0a
DTITLE=Loretta Lynn - Blue Eyed Kentucky Girl
DYEAR=1900
DGENRE=
TTITLE0=Coal Miners Daughter
TTITLE1=Rated "X"
TTITLE2=Blue Eyed Kentucky Girl
TTITLE3=When The Tingle Becomes A Chill
TTITLE4=The Pill
TTITLE5=Somebody Led Me Away
TTITLE6=Another Man Loved Me Last Night
TTITLE7=You're Lookin' At Country
TTITLE8=The Home You're Tearin' Down
TTITLE9=What Kind Of Girl Do You Think I Am
EXTD=
EXTT0=
EXTT1=
EXTT2=
EXTT3=
EXTT4=
EXTT5=
EXTT6=
EXTT7=
EXTT8=
EXTT9=
PLAYORDER=
